<svg xmlns="http://www.w3.org/2000/svg" xmlns:xlink="http://www.w3.org/1999/xlink" viewBox="0 0 162.3 64.24"><defs><style>.cls-1{stroke:#1d1d1b;stroke-miterlimit:10;fill:url(#linear-gradient);}</style><linearGradient id="linear-gradient" x1="228.65" y1="405.01" x2="339.25" y2="405.01" gradientTransform="translate(-176.97 258.19) rotate(-37.69)" gradientUnits="userSpaceOnUse"><stop offset="0" stop-color="#c9e6e8"/><stop offset="0.22" stop-color="#c1e0e4"/><stop offset="0.55" stop-color="#add0da"/><stop offset="0.94" stop-color="#8bb6ca"/><stop offset="1" stop-color="#85b2c7"/></linearGradient></defs><g id="Layer_2" data-name="Layer 2"><path class="cls-1" d="M329.18,358.4l46.52,60.21a1.44,1.44,0,0,1-1.15,2.33l-25.42-.13a1.44,1.44,0,0,1-1.14-.56l-23.11-29.91a1.44,1.44,0,0,0-1.14-.56l-24.24-.13a1.45,1.45,0,0,0-1.16,2.33l20.35,26.33a1.45,1.45,0,0,1-1.16,2.33l-24.25-.13a1.45,1.45,0,0,1-1.14-.57l-11-14.18a1.47,1.47,0,0,0-1.14-.56l-23.52-.14a1.45,1.45,0,0,0-1.16,2.34l8.2,10.61a1.44,1.44,0,0,1-1.15,2.33l-24.54-.13a1.47,1.47,0,0,1-1.14-.56L215,391.54a1.46,1.46,0,0,1,1.16-2.34l25.23.13,24.23.14a1.46,1.46,0,0,0,1.16-2.34l-8.52-11a1.44,1.44,0,0,1,1.15-2.33l25,.13,24.95.13a1.44,1.44,0,0,0,1.15-2.33l-9-11.68a1.45,1.45,0,0,1,1.16-2.33l25.42.14A1.44,1.44,0,0,1,329.18,358.4Z" transform="translate(-214.21 -357.2)"/></g></svg>